<svg width="200" height="200" viewBox="0 0 200 200" fill="none" xmlns="http://www.w3.org/2000/svg">
<rect width="200" height="200" fill="#00B0F0"/>
<path d="M153.285 92.6048C143.283 79.0825 128.881 52.9582 124.76 45.317C120.639 37.6757 117.119 33.7551 109.957 32.6749C102.756 31.5947 81.1527 31.0746 74.4316 37.0356C60.9093 48.9976 39.1457 118.729 40.0259 138.332C40.906 157.936 46.987 161.216 51.3478 162.496C55.7085 163.776 83.7931 167.497 95.9951 167.297C108.197 167.097 114.158 163.736 117.239 160.976C121.279 157.335 145.443 129.171 153.285 117.849C161.126 106.567 163.286 106.127 153.285 92.6048Z" fill="white"/>
<path d="M141.563 159.417C145.324 164.778 151.245 163.218 153.245 161.138C156.045 158.177 159.206 151.456 154.365 147.135C145.564 139.254 137.802 154.097 141.563 159.417Z" fill="white"/>
</svg>
