<svg width="120" height="136" viewBox="0 0 120 136" fill="none" xmlns="http://www.w3.org/2000/svg">
<path d="M113.285 60.6048C103.283 47.0825 88.8805 20.9582 84.7599 13.317C80.6392 5.67571 77.1186 1.75507 69.9574 0.674888C62.7562 -0.40529 41.1527 -0.925376 34.4316 5.03561C20.9093 16.9976 -0.854256 86.7291 0.0258893 106.332C0.906034 125.936 6.98704 129.216 11.3478 130.496C15.7085 131.776 43.7931 135.497 55.9951 135.297C68.1971 135.097 74.1581 131.736 77.2386 128.976C81.2793 125.335 105.443 97.1708 113.285 85.8489C121.126 74.5671 123.286 74.127 113.285 60.6048Z" fill="#00B0F0"/>
<path d="M101.563 127.417C105.324 132.778 111.245 131.218 113.245 129.138C116.045 126.177 119.206 119.456 114.365 115.135C105.564 107.254 97.8023 122.097 101.563 127.417Z" fill="#00B0F0"/>
</svg>
