<svg width="160" height="33" viewBox="0 0 160 33" fill="none" xmlns="http://www.w3.org/2000/svg">
<path d="M27.0378 14.4647C24.6507 11.2373 21.2133 5.00214 20.2298 3.17839C19.2463 1.35463 18.406 0.418885 16.6969 0.161077C14.9781 -0.0967314 9.82199 -0.220861 8.21785 1.20186C4.99047 4.05684 -0.203887 20.6998 0.00617904 25.3785C0.216245 30.0573 1.66761 30.8402 2.70839 31.1458C3.74917 31.4513 10.4522 32.3394 13.3645 32.2916C16.2767 32.2439 17.6995 31.4418 18.4347 30.783C19.3991 29.914 25.1663 23.1919 27.0378 20.4897C28.9093 17.7971 29.425 17.692 27.0378 14.4647Z" fill="#00B0F0"/>
<path d="M24.2403 30.411C25.1379 31.6905 26.551 31.3181 27.0285 30.8216C27.6969 30.115 28.4512 28.5109 27.2958 27.4796C25.1952 25.5986 23.3428 29.1411 24.2403 30.411Z" fill="#00B0F0"/>
<path d="M49.0468 11.3615C48.8272 9.99607 47.6813 7.98135 44.7404 7.98135C42.5061 7.98135 40.9592 9.47091 40.9592 11.1419C40.9592 12.536 41.8281 13.5958 43.5373 13.9682L46.6979 14.6175C50.5745 15.3909 52.6561 17.8449 52.6561 20.9386C52.6561 24.3474 49.8966 27.6034 44.8741 27.6034C39.2883 27.6034 36.7197 24.0036 36.376 20.8431L39.8516 19.8501C40.0712 22.1417 41.7136 24.2519 44.8741 24.2519C47.5095 24.2519 48.8749 22.9151 48.8749 21.2155C48.8749 19.7928 47.8246 18.6374 45.934 18.2364L42.8307 17.5871C39.4792 16.9092 37.2449 14.7035 37.2449 11.4188C37.2449 7.72354 40.625 4.68713 44.7213 4.68713C49.8966 4.68713 51.9113 7.84767 52.4078 10.3016L49.0468 11.3615Z" fill="#00B0F0"/>
<path d="M59.1493 12.0493H62.2812V15.248H59.1493V22.2566C59.1493 23.5934 59.7413 24.1472 61.0685 24.1472C61.565 24.1472 62.157 24.0517 62.3098 24.0231V27.0022C62.0902 27.0977 61.4123 27.3459 60.1041 27.3459C57.316 27.3459 55.5782 25.6749 55.5782 22.8486V15.248H52.7996V12.0493H53.573C55.1867 12.0493 55.9028 11.0276 55.9028 9.69084V7.42786H59.1588V12.0493H59.1493Z" fill="#00B0F0"/>
<path d="M78.7522 19.5824C78.7522 24.2325 75.4294 27.6127 70.9034 27.6127C66.4061 27.6127 63.0928 24.2325 63.0928 19.5824C63.0928 14.961 66.4156 11.5808 70.9034 11.5808C75.4389 11.5808 78.7522 14.961 78.7522 19.5824ZM75.1238 19.5824C75.1238 16.4505 73.1377 14.8368 70.9034 14.8368C68.6977 14.8368 66.683 16.4505 66.683 19.5824C66.683 22.7143 68.6977 24.3853 70.9034 24.3853C73.1377 24.3853 75.1238 22.7429 75.1238 19.5824Z" fill="#00B0F0"/>
<path d="M84.2714 27.1447H80.6716V12.0486H84.1759V14.0633C85.169 12.3255 86.9641 11.6094 88.6446 11.6094C92.3303 11.6094 94.1063 14.2734 94.1063 17.5963V27.1447H90.5065V18.2169C90.5065 16.355 89.6663 14.8654 87.4033 14.8654C85.3599 14.8654 84.2714 16.4504 84.2714 18.4365V27.1447Z" fill="#00B0F0"/>
<path d="M110.291 22.8384C109.489 25.4738 107.092 27.6127 103.473 27.6127C99.3769 27.6127 95.7485 24.6335 95.7485 19.5156C95.7485 14.7413 99.2815 11.5808 103.101 11.5808C107.751 11.5808 110.482 14.6554 110.482 19.4296C110.482 20.0216 110.415 20.5182 110.386 20.5754H99.3483C99.4438 22.8671 101.239 24.5094 103.473 24.5094C105.641 24.5094 106.758 23.3636 107.254 21.874L110.291 22.8384ZM106.844 17.9401C106.777 16.1736 105.603 14.5886 103.12 14.5886C100.857 14.5886 99.5584 16.3264 99.4342 17.9401H106.844Z" fill="#00B0F0"/>
<path d="M115.963 27.1454H112.363V4.69702H115.963V13.5007C116.984 12.1639 118.693 11.6101 120.269 11.6101C123.993 11.6101 125.788 14.2741 125.788 17.597V27.1454H122.188V18.2176C122.188 16.3557 121.348 14.8661 119.085 14.8661C117.099 14.8661 116.01 16.3557 115.953 18.2749V27.1454H115.963Z" fill="#00B0F0"/>
<path d="M133.952 27.5843C130.352 27.5843 128.242 24.9203 128.242 21.5688V12.049H131.842V20.9195C131.842 22.7814 132.711 24.3569 134.878 24.3569C136.96 24.3569 138.039 22.9628 138.039 20.9768V12.049H141.639V24.3951C141.639 25.6364 141.734 26.6008 141.791 27.1546H138.344C138.278 26.8109 138.22 26.1043 138.22 25.4836C137.485 26.8395 135.719 27.5843 133.952 27.5843Z" fill="#00B0F0"/>
<path d="M144.742 27.1454V4.69702H148.275V13.9113C148.953 12.7368 150.69 11.6483 153.02 11.6483C157.546 11.6483 160 15.0857 160 19.5258C160 24.0804 157.298 27.5274 152.896 27.5274C150.757 27.5274 149.115 26.6012 148.246 25.1403V27.155H144.742V27.1454ZM152.314 14.8375C150.022 14.8375 148.256 16.5466 148.256 19.5544C148.256 22.5335 150.022 24.3286 152.314 24.3286C154.672 24.3286 156.372 22.5335 156.372 19.5544C156.372 16.5466 154.701 14.8375 152.314 14.8375Z" fill="#00B0F0"/>
</svg>
