<?xml version="1.0" encoding="utf-8"?>
<!-- Generator: Adobe Illustrator 23.0.3, SVG Export Plug-In . SVG Version: 6.00 Build 0)  -->
<svg version="1.1" id="Layer_1" xmlns="http://www.w3.org/2000/svg" xmlns:xlink="http://www.w3.org/1999/xlink" x="0px" y="0px"
	 width="500px" height="101.4px" viewBox="0 0 500 101.4" style="enable-background:new 0 0 500 101.4;" xml:space="preserve">
<style type="text/css">
	.st0{fill:#26A9E1;}
	.st1{fill:#FFFFFF;}
	.st2{fill:none;}
</style>
<g>
	<rect x="842.8" y="-500.5" class="st0" width="500" height="500"/>
	<g>
		<path class="st1" d="M979.5-287.4l-27.5,43c-0.3,0.5-0.6,1.5-0.6,2.1v27.9c0,0.6-0.5,1.1-1.1,1.1h-13.7c-0.6,0-1.1-0.5-1.1-1.1
			V-242c0-0.6-0.3-1.6-0.6-2.1l-27.5-43.3c-0.3-0.5-0.1-1,0.5-1h16.4c0.6,0,1.4,0.4,1.7,1l17.5,29.4l17.9-29.4c0.3-0.5,1.1-1,1.7-1
			H979C979.6-288.3,979.8-287.9,979.5-287.4z"/>
		<path class="st1" d="M1186.7-213.3c-0.6,0-1.4-0.4-1.8-0.9l-34.5-46.4v46.2c0,0.6-0.5,1.1-1.1,1.1h-13.5c-0.6,0-1.1-0.5-1.1-1.1
			v-72.8c0-0.6,0.5-1.1,1.1-1.1h12.5c0.6,0,1.4,0.4,1.8,0.9l33.3,45v-44.8c0-0.6,0.5-1.1,1.1-1.1h13.5c0.6,0,1.1,0.5,1.1,1.1v72.8
			c0,0.6-0.5,1.1-1.1,1.1H1186.7z"/>
		<path class="st1" d="M1245.6-273.6c-11.6,0-20.8,10.3-20.8,22.6v0.2c0,13.3,9.1,23,22,23c5.4,0,10.2-1.2,14.1-3.7
			c0.5-0.3,0.9-1.1,0.9-1.8v-8.1c0-0.6-0.5-1.1-1.1-1.1h-13.8c-0.6,0-1.1-0.5-1.1-1.1v-11.5c0-0.6,0.5-1.1,1.1-1.1h29.2
			c0.6,0,1.1,0.5,1.1,1.1v29.2c0,0.6-0.4,1.5-0.9,1.8c-7.4,6-17.4,10.8-30.1,10.8c-22.6,0-38.1-15.9-38.1-37.3v-0.2
			c0-20.6,16.1-37.5,38-37.5c12.6,0,20.3,3.3,27.6,9.2c0.5,0.4,0.5,1.1,0.1,1.6l-8.6,10.4c-0.4,0.5-1.1,0.5-1.6,0.2
			C1258.5-271.2,1253.6-273.6,1245.6-273.6z"/>
		<path class="st1" d="M1125.7-250.8c0,20.7-16.8,37.5-37.5,37.5c-20.7,0-37.5-16.8-37.5-37.5c0-20.7,16.8-37.5,37.5-37.5
			C1108.9-288.3,1125.7-271.5,1125.7-250.8z M1088.2-273.4c-12.5,0-22.6,10.1-22.6,22.6c0,12.5,10.1,22.6,22.6,22.6
			c12.5,0,22.6-10.1,22.6-22.6C1110.8-263.3,1100.6-273.4,1088.2-273.4z"/>
		<path class="st1" d="M998.8-287.3c-0.6,0.1-1.4,0.7-1.7,1.2l-25.9,40.5c-0.3,0.5-0.5,1.4-0.4,2.1c3.4,17.2,18.5,30.2,36.7,30.2
			c20.7,0,37.5-16.8,37.5-37.5c0-20.7-16.8-37.5-37.5-37.5C1004.5-288.3,1001.6-287.9,998.8-287.3z M1007.5-228.2
			c-12.5,0-22.6-10.1-22.6-22.6c0-12.5,10.1-22.6,22.6-22.6s22.6,10.1,22.6,22.6C1030.1-238.3,1020-228.2,1007.5-228.2z"/>
	</g>
</g>
<g>
	<rect x="1277.3" y="-52.6" class="st1" width="500" height="500"/>
	<g>
		<path class="st0" d="M1414,160.6l-27.5,43c-0.3,0.5-0.6,1.5-0.6,2.1v27.9c0,0.6-0.5,1.1-1.1,1.1h-13.7c-0.6,0-1.1-0.5-1.1-1.1
			v-27.6c0-0.6-0.3-1.6-0.6-2.1l-27.5-43.3c-0.3-0.5-0.1-1,0.5-1h16.4c0.6,0,1.4,0.4,1.7,1L1378,190l17.9-29.4c0.3-0.5,1.1-1,1.7-1
			h15.9C1414.1,159.6,1414.3,160,1414,160.6z"/>
		<path class="st0" d="M1621.2,234.6c-0.6,0-1.4-0.4-1.8-0.9l-34.5-46.4v46.2c0,0.6-0.5,1.1-1.1,1.1h-13.5c-0.6,0-1.1-0.5-1.1-1.1
			v-72.8c0-0.6,0.5-1.1,1.1-1.1h12.5c0.6,0,1.4,0.4,1.8,0.9l33.3,45v-44.8c0-0.6,0.5-1.1,1.1-1.1h13.5c0.6,0,1.1,0.5,1.1,1.1v72.8
			c0,0.6-0.5,1.1-1.1,1.1H1621.2z"/>
		<path class="st0" d="M1680.1,174.3c-11.6,0-20.8,10.3-20.8,22.6v0.2c0,13.3,9.1,23,22,23c5.4,0,10.2-1.2,14.1-3.7
			c0.5-0.3,0.9-1.1,0.9-1.8v-8.1c0-0.6-0.5-1.1-1.1-1.1h-13.8c-0.6,0-1.1-0.5-1.1-1.1v-11.5c0-0.6,0.5-1.1,1.1-1.1h29.2
			c0.6,0,1.1,0.5,1.1,1.1V222c0,0.6-0.4,1.5-0.9,1.8c-7.4,6-17.4,10.8-30.1,10.8c-22.6,0-38.1-15.9-38.1-37.3v-0.2
			c0-20.6,16.1-37.5,38-37.5c12.6,0,20.3,3.3,27.6,9.2c0.5,0.4,0.5,1.1,0.1,1.6l-8.6,10.4c-0.4,0.5-1.1,0.5-1.6,0.2
			C1693,176.7,1688.1,174.3,1680.1,174.3z"/>
		<path class="st0" d="M1560.2,197.1c0,20.7-16.8,37.5-37.5,37.5c-20.7,0-37.5-16.8-37.5-37.5c0-20.7,16.8-37.5,37.5-37.5
			C1543.4,159.6,1560.2,176.4,1560.2,197.1z M1522.7,174.5c-12.5,0-22.6,10.1-22.6,22.6c0,12.5,10.1,22.6,22.6,22.6
			c12.5,0,22.6-10.1,22.6-22.6C1545.3,184.6,1535.1,174.5,1522.7,174.5z"/>
		<path class="st0" d="M1433.3,160.7c-0.6,0.1-1.4,0.7-1.7,1.2l-25.9,40.5c-0.3,0.5-0.5,1.4-0.4,2.1c3.4,17.2,18.5,30.2,36.7,30.2
			c20.7,0,37.5-16.8,37.5-37.5c0-20.7-16.8-37.5-37.5-37.5C1439,159.6,1436.1,160,1433.3,160.7z M1442,219.7
			c-12.5,0-22.6-10.1-22.6-22.6c0-12.5,10.1-22.6,22.6-22.6c12.5,0,22.6,10.1,22.6,22.6C1464.6,209.6,1454.5,219.7,1442,219.7z"/>
	</g>
</g>
<g>
	<rect x="1091.8" y="-250.5" class="st2" width="500" height="500"/>
	<g>
		<path class="st1" d="M1228.5-37.4l-27.5,43c-0.3,0.5-0.6,1.5-0.6,2.1v27.9c0,0.6-0.5,1.1-1.1,1.1h-13.7c-0.6,0-1.1-0.5-1.1-1.1V8
			c0-0.6-0.3-1.6-0.6-2.1l-27.5-43.3c-0.3-0.5-0.1-1,0.5-1h16.4c0.6,0,1.4,0.4,1.7,1L1192.5-8l17.9-29.4c0.3-0.5,1.1-1,1.7-1h15.9
			C1228.6-38.3,1228.8-37.9,1228.5-37.4z"/>
		<path class="st1" d="M1435.7,36.7c-0.6,0-1.4-0.4-1.8-0.9l-34.5-46.4v46.2c0,0.6-0.5,1.1-1.1,1.1h-13.5c-0.6,0-1.1-0.5-1.1-1.1
			v-72.8c0-0.6,0.5-1.1,1.1-1.1h12.5c0.6,0,1.4,0.4,1.8,0.9l33.3,45v-44.8c0-0.6,0.5-1.1,1.1-1.1h13.5c0.6,0,1.1,0.5,1.1,1.1v72.8
			c0,0.6-0.5,1.1-1.1,1.1H1435.7z"/>
		<path class="st1" d="M1494.6-23.6c-11.6,0-20.8,10.3-20.8,22.6v0.2c0,13.3,9.1,23,22,23c5.4,0,10.2-1.2,14.1-3.7
			c0.5-0.3,0.9-1.1,0.9-1.8V8.6c0-0.6-0.5-1.1-1.1-1.1h-13.8c-0.6,0-1.1-0.5-1.1-1.1V-5.2c0-0.6,0.5-1.1,1.1-1.1h29.2
			c0.6,0,1.1,0.5,1.1,1.1v29.2c0,0.6-0.4,1.5-0.9,1.8c-7.4,6-17.4,10.8-30.1,10.8c-22.6,0-38.1-15.9-38.1-37.3v-0.2
			c0-20.6,16.1-37.5,38-37.5c12.6,0,20.3,3.3,27.6,9.2c0.5,0.4,0.5,1.1,0.1,1.6l-8.6,10.4c-0.4,0.5-1.1,0.5-1.6,0.2
			C1507.5-21.2,1502.6-23.6,1494.6-23.6z"/>
		<path class="st1" d="M1374.7-0.8c0,20.7-16.8,37.5-37.5,37.5c-20.7,0-37.5-16.8-37.5-37.5c0-20.7,16.8-37.5,37.5-37.5
			C1357.9-38.3,1374.7-21.5,1374.7-0.8z M1337.2-23.4c-12.5,0-22.6,10.1-22.6,22.6c0,12.5,10.1,22.6,22.6,22.6
			c12.5,0,22.6-10.1,22.6-22.6C1359.8-13.3,1349.6-23.4,1337.2-23.4z"/>
		<path class="st1" d="M1247.8-37.3c-0.6,0.1-1.4,0.7-1.7,1.2l-25.9,40.5c-0.3,0.5-0.5,1.4-0.4,2.1c3.4,17.2,18.5,30.2,36.7,30.2
			c20.7,0,37.5-16.8,37.5-37.5c0-20.7-16.8-37.5-37.5-37.5C1253.5-38.3,1250.6-37.9,1247.8-37.3z M1256.5,21.8
			c-12.5,0-22.6-10.1-22.6-22.6c0-12.5,10.1-22.6,22.6-22.6c12.5,0,22.6,10.1,22.6,22.6C1279.1,11.7,1269,21.8,1256.5,21.8z"/>
	</g>
</g>
<g>
	<rect x="531.6" y="-130.1" class="st2" width="500" height="500"/>
	<g>
		<path class="st0" d="M668.4,83l-27.5,43c-0.3,0.5-0.6,1.5-0.6,2.1V156c0,0.6-0.5,1.1-1.1,1.1h-13.7c-0.6,0-1.1-0.5-1.1-1.1v-27.6
			c0-0.6-0.3-1.6-0.6-2.1L596.3,83c-0.3-0.5-0.1-1,0.5-1h16.4c0.6,0,1.4,0.4,1.7,1l17.5,29.4L650.3,83c0.3-0.5,1.1-1,1.7-1h15.9
			C668.5,82.1,668.7,82.5,668.4,83z"/>
		<path class="st0" d="M875.6,157.1c-0.6,0-1.4-0.4-1.8-0.9l-34.5-46.4V156c0,0.6-0.5,1.1-1.1,1.1h-13.5c-0.6,0-1.1-0.5-1.1-1.1
			V83.2c0-0.6,0.5-1.1,1.1-1.1h12.5c0.6,0,1.4,0.4,1.8,0.9l33.3,45V83.2c0-0.6,0.5-1.1,1.1-1.1h13.5c0.6,0,1.1,0.5,1.1,1.1V156
			c0,0.6-0.5,1.1-1.1,1.1H875.6z"/>
		<path class="st0" d="M934.5,96.8c-11.6,0-20.8,10.3-20.8,22.6v0.2c0,13.3,9.1,23,22,23c5.4,0,10.2-1.2,14.1-3.7
			c0.5-0.3,0.9-1.1,0.9-1.8V129c0-0.6-0.5-1.1-1.1-1.1h-13.8c-0.6,0-1.1-0.5-1.1-1.1v-11.5c0-0.6,0.5-1.1,1.1-1.1H965
			c0.6,0,1.1,0.5,1.1,1.1v29.2c0,0.6-0.4,1.5-0.9,1.8c-7.4,6-17.4,10.8-30.1,10.8c-22.6,0-38.1-15.9-38.1-37.3v-0.2
			c0-20.6,16.1-37.5,38-37.5c12.6,0,20.3,3.3,27.6,9.2c0.5,0.4,0.5,1.1,0.1,1.6l-8.6,10.4c-0.4,0.5-1.1,0.5-1.6,0.2
			C947.4,99.2,942.5,96.8,934.5,96.8z"/>
		<path class="st0" d="M814.6,119.6c0,20.7-16.8,37.5-37.5,37.5c-20.7,0-37.5-16.8-37.5-37.5c0-20.7,16.8-37.5,37.5-37.5
			C797.8,82.1,814.6,98.9,814.6,119.6z M777,97c-12.5,0-22.6,10.1-22.6,22.6c0,12.5,10.1,22.6,22.6,22.6c12.5,0,22.6-10.1,22.6-22.6
			C799.6,107.1,789.5,97,777,97z"/>
		<path class="st0" d="M687.6,83.1c-0.6,0.1-1.4,0.7-1.7,1.2l-25.9,40.5c-0.3,0.5-0.5,1.4-0.4,2.1c3.4,17.2,18.5,30.2,36.7,30.2
			c20.7,0,37.5-16.8,37.5-37.5c0-20.7-16.8-37.5-37.5-37.5C693.4,82.1,690.5,82.5,687.6,83.1z M696.4,142.2
			c-12.5,0-22.6-10.1-22.6-22.6c0-12.5,10.1-22.6,22.6-22.6c12.5,0,22.6,10.1,22.6,22.6C719,132.1,708.9,142.2,696.4,142.2z"/>
	</g>
</g>
<g>
	<path class="st0" d="M97.7,1.3L60.5,59.3c-0.5,0.7-0.8,2-0.8,2.8v37.7c0,0.8-0.7,1.5-1.5,1.5H39.6c-0.8,0-1.5-0.7-1.5-1.5V62.6
		c0-0.8-0.4-2.1-0.8-2.8L0.2,1.3C-0.2,0.6,0.1,0,0.9,0h22.2c0.8,0,1.9,0.6,2.3,1.3L49,41L73.2,1.3C73.6,0.6,74.6,0,75.5,0h21.5
		C97.8,0,98.1,0.6,97.7,1.3z"/>
	<path class="st0" d="M377.6,101.4c-0.8,0-1.9-0.5-2.4-1.2l-46.6-62.8v62.5c0,0.8-0.7,1.5-1.5,1.5h-18.2c-0.8,0-1.5-0.7-1.5-1.5V1.5
		c0-0.8,0.7-1.5,1.5-1.5h16.8c0.8,0,1.9,0.5,2.4,1.2l45,60.8V1.5c0-0.8,0.7-1.5,1.5-1.5h18.2c0.8,0,1.5,0.7,1.5,1.5v98.3
		c0,0.8-0.7,1.5-1.5,1.5H377.6z"/>
	<path class="st0" d="M457.3,19.9c-15.7,0-28.1,13.9-28.1,30.5v0.3c0,17.9,12.3,31.1,29.7,31.1c7.2,0,13.8-1.7,19-5
		c0.7-0.5,1.3-1.5,1.3-2.4v-11c0-0.8-0.7-1.5-1.5-1.5H459c-0.8,0-1.5-0.7-1.5-1.5V44.8c0-0.8,0.7-1.5,1.5-1.5h39.5
		c0.8,0,1.5,0.7,1.5,1.5v39.5c0,0.8-0.5,2-1.2,2.5c-10,8.1-23.5,14.6-40.7,14.6c-30.5,0-51.5-21.4-51.5-50.4v-0.3
		C406.6,22.8,428.3,0,458,0c17,0,27.5,4.4,37.3,12.5c0.7,0.5,0.7,1.5,0.2,2.1l-11.6,14c-0.5,0.6-1.5,0.7-2.1,0.2
		C474.6,23.2,468,19.9,457.3,19.9z"/>
	<path class="st0" d="M295.2,50.7c0,28-22.7,50.7-50.7,50.7c-28,0-50.7-22.7-50.7-50.7c0-28,22.7-50.7,50.7-50.7
		C272.5,0,295.2,22.7,295.2,50.7z M244.5,20.2c-16.9,0-30.5,13.7-30.5,30.5c0,16.9,13.7,30.5,30.5,30.5c16.9,0,30.5-13.7,30.5-30.5
		C275,33.8,261.3,20.2,244.5,20.2z"/>
	<path class="st0" d="M123.7,1.4c-0.8,0.2-1.8,1-2.3,1.7l-35,54.7c-0.5,0.7-0.7,2-0.5,2.8c4.6,23.2,25.1,40.8,49.7,40.8
		c28,0,50.7-22.7,50.7-50.7c0-28-22.7-50.7-50.7-50.7C131.4,0,127.5,0.5,123.7,1.4z M135.5,81.2c-16.9,0-30.5-13.7-30.5-30.5
		c0-16.9,13.7-30.5,30.5-30.5S166,33.8,166,50.7C166,67.5,152.4,81.2,135.5,81.2z"/>
</g>
<g>
	<path class="st1" d="M97.7,222.6l-37.1,58.1c-0.5,0.7-0.8,2-0.8,2.8v37.7c0,0.8-0.7,1.5-1.5,1.5H39.6c-0.8,0-1.5-0.7-1.5-1.5v-37.3
		c0-0.8-0.4-2.1-0.8-2.8L0.2,222.6c-0.5-0.7-0.1-1.3,0.7-1.3h22.2c0.8,0,1.9,0.6,2.3,1.3L49,262.4l24.1-39.7
		c0.4-0.7,1.5-1.3,2.3-1.3h21.5C97.8,221.4,98.1,221.9,97.7,222.6z"/>
	<path class="st1" d="M377.6,322.7c-0.8,0-1.9-0.5-2.4-1.2l-46.6-62.8v62.5c0,0.8-0.7,1.5-1.5,1.5h-18.2c-0.8,0-1.5-0.7-1.5-1.5
		v-98.3c0-0.8,0.7-1.5,1.5-1.5h16.8c0.8,0,1.9,0.5,2.4,1.2l45,60.8v-60.5c0-0.8,0.7-1.5,1.5-1.5h18.2c0.8,0,1.5,0.7,1.5,1.5v98.3
		c0,0.8-0.7,1.5-1.5,1.5H377.6z"/>
	<path class="st1" d="M457.3,241.2c-15.7,0-28.1,13.9-28.1,30.5v0.3c0,17.9,12.3,31.1,29.7,31.1c7.2,0,13.8-1.7,19-5
		c0.7-0.5,1.3-1.5,1.3-2.4v-11c0-0.8-0.7-1.5-1.5-1.5H459c-0.8,0-1.5-0.7-1.5-1.5v-15.6c0-0.8,0.7-1.5,1.5-1.5h39.5
		c0.8,0,1.5,0.7,1.5,1.5v39.5c0,0.8-0.5,2-1.2,2.5c-10,8.1-23.5,14.6-40.7,14.6c-30.5,0-51.5-21.4-51.5-50.4V272
		c0-27.9,21.7-50.7,51.4-50.7c17,0,27.5,4.4,37.3,12.5c0.7,0.5,0.7,1.5,0.2,2.1l-11.6,14c-0.5,0.6-1.5,0.7-2.1,0.2
		C474.6,244.5,468,241.2,457.3,241.2z"/>
	<path class="st1" d="M295.2,272c0,28-22.7,50.7-50.7,50.7c-28,0-50.7-22.7-50.7-50.7c0-28,22.7-50.7,50.7-50.7
		C272.5,221.4,295.2,244,295.2,272z M244.5,241.5c-16.9,0-30.5,13.7-30.5,30.5c0,16.9,13.7,30.5,30.5,30.5
		c16.9,0,30.5-13.7,30.5-30.5C275,255.2,261.3,241.5,244.5,241.5z"/>
	<path class="st1" d="M123.7,222.8c-0.8,0.2-1.8,1-2.3,1.7l-35,54.7c-0.5,0.7-0.7,2-0.5,2.8c4.6,23.2,25.1,40.8,49.7,40.8
		c28,0,50.7-22.7,50.7-50.7c0-28-22.7-50.7-50.7-50.7C131.4,221.4,127.5,221.9,123.7,222.8z M135.5,302.6
		c-16.9,0-30.5-13.7-30.5-30.5c0-16.9,13.7-30.5,30.5-30.5S166,255.2,166,272C166,288.9,152.4,302.6,135.5,302.6z"/>
</g>
</svg>
